<svg id="Layer_1" enable-background="new 0 0 512 512" height="512" viewBox="0 0 512 512" width="512" xmlns="http://www.w3.org/2000/svg"><g><path d="m245.002 5.499c-49.243 0-95.085 14.54-133.49 39.543l-16.617 399.088-.002.001c41.468 32.194 93.546 51.372 150.109 51.372 135.311 0 245.002-109.691 245.002-245.002s-109.691-245.002-245.002-245.002z" fill="#f964b2"/><path d="m512 329.889v-231.657c0-29.254-23.935-53.189-53.19-53.189h-347.298c-25.624 16.682-47.933 38.022-65.725 62.827h350.196c29.254 0 53.19 23.935 53.19 53.189v222.02h9.637c29.255-.001 53.19-23.936 53.19-53.19z" fill="#e9efff"/><path d="m111.512 45.042c-25.624 16.682-47.933 38.022-65.725 62.827h170.817c.448-1.137.759-1.775.759-1.775-31.449-31.449-3.506-61.052-3.505-61.052z" fill="#bec8f7"/><path d="m397.759 106.094h-350.677c-29.597 40.496-47.082 90.406-47.082 144.407 0 78.749 37.16 148.81 94.895 193.629h181.753c10.699 0 20.646 5.139 27.182 13.611 23.254 30.141 57.422 48.647 93.88 48.76 14.345.045 20.708-20.383 9.396-30.347-6.063-5.341-11.525-11.218-16.397-17.521-4.573-5.916-.429-14.503 7.049-14.503 29.254 0 53.189-23.935 53.189-53.19v-231.656c.001-29.255-23.934-53.19-53.188-53.19z" fill="#3c58a0"/><path d="m47.082 106.094c-29.597 40.496-47.082 90.406-47.082 144.407 0 78.749 37.16 148.81 94.895 193.629h155.461c-29.435-29.435-5.824-61.052-5.824-61.052l-11.843-229.895c-30.999-14.984-15.326-47.088-15.326-47.089z" fill="#2a428c"/><g fill="#f964b2"><path d="m293.319 207.805c-12.491-10.508-20.448-26.241-20.448-43.803h-18.63c3.988 20.754 19.21 37.561 39.078 43.803z"/><path d="m273.99 243.12c15.86 11.283 35.22 17.952 56.121 17.952v-39.831c-6.907 0-13.533-1.23-19.669-3.482v32.495c-12.89 0-25.191-2.547-36.452-7.134z"/><path d="m142.785 312.874c0 17.322 12.548 31.759 29.029 34.725-5.805-6.292-9.36-14.691-9.36-23.907 0-19.461 15.833-35.293 35.294-35.293v-39.831c-6.806 0-13.396.926-19.67 2.63v26.382c-19.46.001-35.293 15.833-35.293 35.294z"/><path d="m253.202 312.874c0 41.423-33.701 75.124-75.123 75.124-9.066 0-17.762-1.615-25.816-4.571 12.635 9.645 28.399 15.389 45.486 15.389 41.422 0 75.123-33.701 75.123-75.124v-81.021c-7.011-2.958-13.606-6.715-19.669-11.157v81.36z"/></g><path d="m310.442 210.423c-5.963 0-11.714-.919-17.123-2.619 5.044 4.244 10.823 7.642 17.123 9.954z" fill="#4ce088"/><path d="m122.624 323.692c0-34.618 23.544-63.825 55.455-72.493v-13.448c-41.424 0-75.124 33.701-75.124 75.124 0 32.357 20.563 60.002 49.308 70.553-17.998-13.738-29.639-35.399-29.639-59.736z" fill="#4ce088"/><path d="m272.871 242.333v.339c.37.156.747.297 1.119.449-.371-.265-.751-.519-1.119-.788z" fill="#e9efff"/><path d="m197.749 358.986c19.46 0 35.292-15.833 35.292-35.293v-159.692h21.2c-.673-3.505-1.039-7.119-1.039-10.818h-39.831v159.691c0 19.461-15.832 35.293-35.292 35.293-2.139 0-4.23-.202-6.265-.568 6.454 6.995 15.69 11.387 25.935 11.387z" fill="#4ce088"/><path d="m273.99 243.12c11.261 4.587 23.561 7.133 36.452 7.133v-32.495c-6.301-2.313-12.079-5.711-17.123-9.954-19.868-6.242-35.09-23.048-39.078-43.803h-21.2v159.691c0 19.461-15.832 35.293-35.292 35.293-10.245 0-19.481-4.391-25.934-11.386-16.482-2.966-29.029-17.403-29.029-34.725 0-19.461 15.833-35.293 35.294-35.293v-26.382c-31.911 8.668-55.455 37.876-55.455 72.493 0 24.337 11.641 45.997 29.639 59.735 8.054 2.956 16.75 4.571 25.816 4.571 41.422 0 75.123-33.701 75.123-75.124v-81.36c6.063 4.443 12.659 8.199 19.669 11.157v-.339c.367.27.747.524 1.118.788z" fill="#e9efff"/></g></svg>